#Comment line ignore any data following # character 
#Hierarchical Translation and Rotation (.htr) file 
[Header]	
#Header keywords are followed by a single value 
FileType HTR		#Single word string
DataType HTRS		#Translation followed by rotation and scale data
FileVersion 1		#integer
NumSegments 84		#integer
NumFrames 2		#integer
DataFrameRate 30		#integer, data frame rate in this file
EulerRotationOrder ZYX
CalibrationUnits mm
RotationUnits Degrees
GlobalAxisofGravity Y
BoneLengthAxis Y
ScaleFactor 1.00
[SegmentNames&Hierarchy]
#CHILD	PARENT
MASTER GLOBAL
root MASTER
chest root
L_mid_tent01 root
R_mid_tent01 root
spine01 root
Bip01_Neck chest
L_humerus chest
R_humerus chest
weapon_bone chest
Bip01_Head Bip01_Neck
eye_left_bone Bip01_Head
eye_right_bone Bip01_Head
L_forearm L_humerus
L_front_hand L_forearm
L_weapon_bone L_forearm
L_front_hand01_01 L_front_hand
L_front_hand02_01 L_front_hand
L_front_hand03_01 L_front_hand
L_front_hand01_02 L_front_hand01_01
L_front_hand02_02 L_front_hand02_01
L_front_hand03_02 L_front_hand03_01
R_forearm R_humerus
R_front_hand R_forearm
R_weapon_bone R_forearm
R_front_hand01_01 R_front_hand
R_front_hand02_01 R_front_hand
R_front_hand03_01 R_front_hand
R_front_hand01_02 R_front_hand01_01
R_front_hand02_02 R_front_hand02_01
R_front_hand03_02 R_front_hand03_01
null_rope01_connect L_mid_tent01
Rope1_Seg01 null_rope01_connect
Rope1_Seg02 Rope1_Seg01
Rope1_Seg03 Rope1_Seg02
Rope1_Seg04 Rope1_Seg03
Rope1_Seg05 Rope1_Seg04
Rope1_Seg06 Rope1_Seg05
Rope1_Seg07 Rope1_Seg06
Rope1_Seg09 Rope1_Seg07
L_mid_hand01 Rope1_Seg09
L_mid_hand02 Rope1_Seg09
L_mid_hand03 Rope1_Seg09
null_rope02_connect R_mid_tent01
Rope2_Seg01 null_rope02_connect
Rope2_Seg02 Rope2_Seg01
Rope2_Seg03 Rope2_Seg02
Rope2_Seg04 Rope2_Seg03
Rope2_Seg05 Rope2_Seg04
Rope2_Seg06 Rope2_Seg05
Rope2_Seg07 Rope2_Seg06
Rope2_Seg09 Rope2_Seg07
R_mid_hand01 Rope2_Seg09
R_mid_hand02 Rope2_Seg09
R_mid_hand03 Rope2_Seg09
spine02 spine01
spine03 spine02
pelvis spine03
null_rope03_connect pelvis
null_rope04_connect pelvis
Rope3_Seg01 null_rope03_connect
Rope3_Seg02 Rope3_Seg01
Rope3_Seg03 Rope3_Seg02
Rope3_Seg04 Rope3_Seg03
Rope3_Seg05 Rope3_Seg04
Rope3_Seg06 Rope3_Seg05
Rope3_Seg07 Rope3_Seg06
Rope3_Seg08 Rope3_Seg07
Rope3_Seg09 Rope3_Seg08
R_rear_hand01 Rope3_Seg09
R_rear_hand02 Rope3_Seg09
R_rear_hand03 Rope3_Seg09
Rope4_Seg01 null_rope04_connect
Rope4_Seg02 Rope4_Seg01
Rope4_Seg03 Rope4_Seg02
Rope4_Seg04 Rope4_Seg03
Rope4_Seg05 Rope4_Seg04
Rope4_Seg06 Rope4_Seg05
Rope4_Seg07 Rope4_Seg06
Rope4_Seg08 Rope4_Seg07
Rope4_Seg09 Rope4_Seg08
L_rear_hand01 Rope4_Seg09
L_rear_hand02 Rope4_Seg09
L_rear_hand03 Rope4_Seg09
[BasePosition]
#SegmentName Tx, Ty, Tz, Rx, Ry, Rz, BoneLength
MASTER 0.000000 0.000000 0.000000 -90.000000 0.000000 0.000000 10.000000 
root 0.000000 0.000000 0.000000 0.000000 0.000000 0.000000 10.000000 
chest 0.000000 0.000000 0.000000 0.000000 0.000000 0.000000 10.000000 
L_mid_tent01 0.000000 0.000000 0.000000 0.000000 0.000000 0.000000 10.000000 
R_mid_tent01 0.000000 0.000000 0.000000 0.000000 0.000000 0.000000 10.000000 
spine01 0.000000 0.000000 0.000000 0.000000 0.000000 0.000000 10.000000 
Bip01_Neck 0.000000 0.000000 0.000000 0.000000 0.000000 0.000000 10.000000 
L_humerus 0.000000 0.000000 0.000000 0.000000 0.000000 0.000000 10.000000 
R_humerus 0.000000 0.000000 0.000000 0.000000 0.000000 0.000000 10.000000 
weapon_bone 0.000000 0.000000 0.000000 0.000000 0.000000 0.000000 10.000000 
Bip01_Head 0.000000 0.000000 0.000000 0.000000 0.000000 0.000000 10.000000 
eye_left_bone 0.000000 0.000000 0.000000 0.000000 0.000000 0.000000 10.000000 
eye_right_bone 0.000000 0.000000 0.000000 0.000000 0.000000 0.000000 10.000000 
L_forearm 0.000000 0.000000 0.000000 0.000000 0.000000 0.000000 10.000000 
L_front_hand 0.000000 0.000000 0.000000 0.000000 0.000000 0.000000 10.000000 
L_weapon_bone 0.000000 0.000000 0.000000 0.000000 0.000000 0.000000 10.000000 
L_front_hand01_01 0.000000 0.000000 0.000000 0.000000 0.000000 0.000000 10.000000 
L_front_hand02_01 0.000000 0.000000 0.000000 0.000000 0.000000 0.000000 10.000000 
L_front_hand03_01 0.000000 0.000000 0.000000 0.000000 0.000000 0.000000 10.000000 
L_front_hand01_02 0.000000 0.000000 0.000000 0.000000 0.000000 0.000000 10.000000 
L_front_hand02_02 0.000000 0.000000 0.000000 0.000000 0.000000 0.000000 10.000000 
L_front_hand03_02 0.000000 0.000000 0.000000 0.000000 0.000000 0.000000 10.000000 
R_forearm 0.000000 0.000000 0.000000 0.000000 0.000000 0.000000 10.000000 
R_front_hand 0.000000 0.000000 0.000000 0.000000 0.000000 0.000000 10.000000 
R_weapon_bone 0.000000 0.000000 0.000000 0.000000 0.000000 0.000000 10.000000 
R_front_hand01_01 0.000000 0.000000 0.000000 0.000000 0.000000 0.000000 10.000000 
R_front_hand02_01 0.000000 0.000000 0.000000 0.000000 0.000000 0.000000 10.000000 
R_front_hand03_01 0.000000 0.000000 0.000000 0.000000 0.000000 0.000000 10.000000 
R_front_hand01_02 0.000000 0.000000 0.000000 0.000000 0.000000 0.000000 10.000000 
R_front_hand02_02 0.000000 0.000000 0.000000 0.000000 0.000000 0.000000 10.000000 
R_front_hand03_02 0.000000 0.000000 0.000000 0.000000 0.000000 0.000000 10.000000 
null_rope01_connect 0.000000 0.000000 0.000000 0.000000 0.000000 0.000000 10.000000 
Rope1_Seg01 0.000000 0.000000 0.000000 0.000000 0.000000 0.000000 10.000000 
Rope1_Seg02 0.000000 0.000000 0.000000 0.000000 0.000000 0.000000 10.000000 
Rope1_Seg03 0.000000 0.000000 0.000000 0.000000 0.000000 0.000000 10.000000 
Rope1_Seg04 0.000000 0.000000 0.000000 0.000000 0.000000 0.000000 10.000000 
Rope1_Seg05 0.000000 0.000000 0.000000 0.000000 0.000000 0.000000 10.000000 
Rope1_Seg06 0.000000 0.000000 0.000000 0.000000 0.000000 0.000000 10.000000 
Rope1_Seg07 0.000000 0.000000 0.000000 0.000000 0.000000 0.000000 10.000000 
Rope1_Seg09 0.000000 0.000000 0.000000 0.000000 0.000000 0.000000 10.000000 
L_mid_hand01 0.000000 0.000000 0.000000 0.000000 0.000000 0.000000 10.000000 
L_mid_hand02 0.000000 0.000000 0.000000 0.000000 0.000000 0.000000 10.000000 
L_mid_hand03 0.000000 0.000000 0.000000 0.000000 0.000000 0.000000 10.000000 
null_rope02_connect 0.000000 0.000000 0.000000 0.000000 0.000000 0.000000 10.000000 
Rope2_Seg01 0.000000 0.000000 0.000000 0.000000 0.000000 0.000000 10.000000 
Rope2_Seg02 0.000000 0.000000 0.000000 0.000000 0.000000 0.000000 10.000000 
Rope2_Seg03 0.000000 0.000000 0.000000 0.000000 0.000000 0.000000 10.000000 
Rope2_Seg04 0.000000 0.000000 0.000000 0.000000 0.000000 0.000000 10.000000 
Rope2_Seg05 0.000000 0.000000 0.000000 0.000000 0.000000 0.000000 10.000000 
Rope2_Seg06 0.000000 0.000000 0.000000 0.000000 0.000000 0.000000 10.000000 
Rope2_Seg07 0.000000 0.000000 0.000000 0.000000 0.000000 0.000000 10.000000 
Rope2_Seg09 0.000000 0.000000 0.000000 0.000000 0.000000 0.000000 10.000000 
R_mid_hand01 0.000000 0.000000 0.000000 0.000000 0.000000 0.000000 10.000000 
R_mid_hand02 0.000000 0.000000 0.000000 0.000000 0.000000 0.000000 10.000000 
R_mid_hand03 0.000000 0.000000 0.000000 0.000000 0.000000 0.000000 10.000000 
spine02 0.000000 0.000000 0.000000 0.000000 0.000000 0.000000 10.000000 
spine03 0.000000 0.000000 0.000000 0.000000 0.000000 0.000000 10.000000 
pelvis 0.000000 0.000000 0.000000 0.000000 0.000000 0.000000 10.000000 
null_rope03_connect 0.000000 0.000000 0.000000 0.000000 0.000000 0.000000 10.000000 
null_rope04_connect 0.000000 0.000000 0.000000 0.000000 0.000000 0.000000 10.000000 
Rope3_Seg01 0.000000 0.000000 0.000000 0.000000 0.000000 0.000000 10.000000 
Rope3_Seg02 0.000000 0.000000 0.000000 0.000000 0.000000 0.000000 10.000000 
Rope3_Seg03 0.000000 0.000000 0.000000 0.000000 0.000000 0.000000 10.000000 
Rope3_Seg04 0.000000 0.000000 0.000000 0.000000 0.000000 0.000000 10.000000 
Rope3_Seg05 0.000000 0.000000 0.000000 0.000000 0.000000 0.000000 10.000000 
Rope3_Seg06 0.000000 0.000000 0.000000 0.000000 0.000000 0.000000 10.000000 
Rope3_Seg07 0.000000 0.000000 0.000000 0.000000 0.000000 0.000000 10.000000 
Rope3_Seg08 0.000000 0.000000 0.000000 0.000000 0.000000 0.000000 10.000000 
Rope3_Seg09 0.000000 0.000000 0.000000 0.000000 0.000000 0.000000 10.000000 
R_rear_hand01 0.000000 0.000000 0.000000 0.000000 0.000000 0.000000 10.000000 
R_rear_hand02 0.000000 0.000000 0.000000 0.000000 0.000000 0.000000 10.000000 
R_rear_hand03 0.000000 0.000000 0.000000 0.000000 0.000000 0.000000 10.000000 
Rope4_Seg01 0.000000 0.000000 0.000000 0.000000 0.000000 0.000000 10.000000 
Rope4_Seg02 0.000000 0.000000 0.000000 0.000000 0.000000 0.000000 10.000000 
Rope4_Seg03 0.000000 0.000000 0.000000 0.000000 0.000000 0.000000 10.000000 
Rope4_Seg04 0.000000 0.000000 0.000000 0.000000 0.000000 0.000000 10.000000 
Rope4_Seg05 0.000000 0.000000 0.000000 0.000000 0.000000 0.000000 10.000000 
Rope4_Seg06 0.000000 0.000000 0.000000 0.000000 0.000000 0.000000 10.000000 
Rope4_Seg07 0.000000 0.000000 0.000000 0.000000 0.000000 0.000000 10.000000 
Rope4_Seg08 0.000000 0.000000 0.000000 0.000000 0.000000 0.000000 10.000000 
Rope4_Seg09 0.000000 0.000000 0.000000 0.000000 0.000000 0.000000 10.000000 
L_rear_hand01 0.000000 0.000000 0.000000 0.000000 0.000000 0.000000 10.000000 
L_rear_hand02 0.000000 0.000000 0.000000 0.000000 0.000000 0.000000 10.000000 
L_rear_hand03 0.000000 0.000000 0.000000 0.000000 0.000000 0.000000 10.000000 
#Beginning of Data. Separated by tabs
#Fr	Tx	Ty	Tz	Rx	Ry	Rz	SF
[MASTER]
1 0.000000 0.000000 0.000000 0.001660 0.001660 0.001660 0.000000
2 0.000000 0.000000 0.000000 0.001660 0.001660 0.001660 0.000000
[root]
1 -16.502314 9.364134 1448.320068 -91.728889 -11.584497 -89.471619 1448.444336
2 -11.089746 1.062198 1464.564941 -92.304138 -12.104530 -80.807320 1464.607300
[chest]
1 -84.512650 -34.090519 0.000000 -2.170494 -0.006436 168.239609 91.129311
2 -84.512650 -34.090519 0.000000 -2.206467 0.351162 168.411606 91.129311
[L_mid_tent01]
1 27.299099 22.179411 -249.918640 -20.661392 12.026043 12.983022 252.381653
2 27.299097 22.179405 -249.918640 -24.827269 15.261488 9.063221 252.381653
[R_mid_tent01]
1 23.228794 24.509907 226.238495 -165.192200 -17.956036 24.056787 228.744751
2 23.228794 24.509907 226.238495 -166.353531 -25.999245 28.714273 228.744751
[spine01]
1 -0.361383 -0.195265 0.000000 0.001947 0.001312 22.051847 0.410763
2 -0.361383 -0.195265 0.000000 0.001946 0.001313 21.971262 0.410763
[Bip01_Neck]
1 165.484543 71.581718 0.000119 175.896118 1.177290 24.871183 180.302734
2 165.484543 71.581718 0.000119 175.896118 1.177290 24.871183 180.302734
[L_humerus]
1 -13.983130 -135.272980 -120.471481 -5.480129 68.873367 84.573456 181.680161
2 -13.983130 -135.272980 -120.471481 -4.085684 67.151077 86.826500 181.680161
[R_humerus]
1 -13.983309 -135.273102 125.287651 27.897165 -69.888802 67.752319 184.909012
2 -13.983309 -135.273102 125.287651 38.857388 -66.221878 59.767433 184.909012
[weapon_bone]
1 235.964890 -300.705902 0.000000 0.000000 -89.951546 -128.212341 382.234833
2 235.964890 -300.705902 0.000000 0.000000 -89.951546 -128.212341 382.234833
[Bip01_Head]
1 208.154083 144.943085 8.343306 2.562633 1.473292 -62.980957 253.783829
2 208.632233 144.315475 8.270283 1.267656 1.440038 -62.688816 253.816406
[eye_left_bone]
1 26.197813 155.481537 -74.568962 -104.218590 -85.597984 4.718000 174.417206
2 27.085573 156.005997 -74.740074 -104.218590 -85.597984 4.718000 175.093048
[eye_right_bone]
1 36.079102 156.294846 54.149879 75.788536 -85.594551 4.713911 169.298523
2 37.139439 156.833511 53.972118 75.788536 -85.594551 4.713911 169.967865
[L_forearm]
1 322.776093 0.000000 -0.000119 0.000396 -0.002314 -109.419975 322.776093
2 322.776093 0.000000 -0.000119 0.000381 -0.002316 -108.703407 322.776093
[L_front_hand]
1 241.149185 -0.042021 -3.300071 -178.667953 -1.835447 -27.422350 241.171753
2 241.149185 -0.042021 -3.300071 -178.684006 -1.848046 -26.948961 241.171753
[L_weapon_bone]
1 156.183838 0.000000 0.000000 0.001660 0.001660 0.001660 156.183838
2 156.183838 0.000000 0.000000 0.001643 0.001676 -1.121035 156.183838
[L_front_hand01_01]
1 86.095154 20.947098 -0.655860 -0.366594 -0.477154 75.385574 88.609184
2 86.095154 20.947098 -0.655860 -0.366360 -0.477334 75.329323 88.609184
[L_front_hand02_01]
1 86.935165 -11.437475 24.513514 154.399796 -59.883835 -61.369587 91.046425
2 86.935165 -11.437475 24.513514 154.317520 -59.860394 -61.268326 91.046425
[L_front_hand03_01]
1 86.637497 -14.123976 -20.424902 -153.913849 58.118122 -62.702866 90.126129
2 86.637497 -14.123976 -20.424902 -153.841522 58.096550 -62.616226 90.126129
[L_front_hand01_02]
1 71.020905 -0.000179 0.000030 0.000334 -0.002323 -106.379684 71.020905
2 71.020905 -0.000179 0.000030 0.000334 -0.002323 -106.379684 71.020905
[L_front_hand02_02]
1 71.020927 -0.000119 0.000060 0.000334 -0.002323 -106.379684 71.020927
2 71.020927 -0.000119 0.000060 0.000334 -0.002323 -106.379684 71.020927
[L_front_hand03_02]
1 71.020905 -0.000060 0.000060 0.000334 -0.002323 -106.379684 71.020905
2 71.020905 -0.000060 0.000060 0.000334 -0.002323 -106.379684 71.020905
[R_forearm]
1 322.776428 -0.000060 0.000030 0.202103 0.065158 -108.062805 322.776428
2 322.776428 -0.000060 0.000030 0.209448 0.046129 -102.993423 322.776428
[R_front_hand]
1 238.847015 -0.006795 2.210259 -2.635298 -10.645461 -26.312506 238.857239
2 238.847015 -0.006795 2.210259 -2.635298 -10.645461 -26.312506 238.857239
[R_weapon_bone]
1 155.664093 0.002503 -0.000030 0.003487 0.001180 -90.988930 155.664078
2 155.664093 0.002503 -0.000030 0.003487 0.001180 -90.988930 155.664078
[R_front_hand01_01]
1 87.624611 14.231146 22.918642 -154.633499 -59.950619 61.746044 91.683487
2 87.624611 14.231146 22.918642 -152.458237 -59.311371 59.220978 91.683487
[R_front_hand02_01]
1 89.356956 14.367283 -19.491137 154.602661 58.302849 63.744389 92.579636
2 89.356956 14.367283 -19.491137 152.556641 57.670189 61.336109 92.579636
[R_front_hand03_01]
1 87.286232 -22.307278 -0.143439 0.162155 -0.423168 -75.767921 90.091743
2 87.286232 -22.307278 -0.143439 0.152946 -0.428139 -74.346001 90.091743
[R_front_hand01_02]
1 71.020905 0.000060 0.000119 0.002338 -0.000212 100.374275 71.020905
2 71.020905 0.000060 0.000119 0.002339 -0.000203 99.904800 71.020905
[R_front_hand02_02]
1 71.020844 -0.000030 -0.000119 0.002338 -0.000212 100.374275 71.020836
2 71.020844 -0.000030 -0.000119 0.002339 -0.000203 99.904800 71.020836
[R_front_hand03_02]
1 71.020905 0.000000 0.000030 0.002338 -0.000212 100.367844 71.020905
2 71.020905 0.000000 0.000030 0.002339 -0.000203 99.899437 71.020905
[null_rope01_connect]
1 328.732483 0.000000 -0.000238 -154.483337 -64.791321 -118.914307 328.732483
2 328.732483 0.000000 -0.000238 -163.820084 -62.686398 -104.149338 328.732483
[Rope1_Seg01]
1 -0.000038 0.000038 0.000153 69.016197 0.238899 -129.911499 0.000162
2 -0.000038 0.000037 0.000148 56.122269 -4.644827 -124.304214 0.000157
[Rope1_Seg02]
1 139.999863 -0.000179 0.000000 -5.846246 3.728422 -0.347339 139.999863
2 139.999863 -0.000179 0.000000 -6.451617 4.044036 0.517144 139.999863
[Rope1_Seg03]
1 139.999924 0.000060 -0.000060 -9.021911 4.520059 0.096680 139.999924
2 139.999924 0.000060 -0.000060 -9.262711 4.744912 1.385078 139.999924
[Rope1_Seg04]
1 139.999924 -0.000060 -0.000119 -18.201393 6.716222 1.493618 139.999924
2 139.999924 -0.000060 -0.000119 -14.188151 5.475379 4.215883 139.999924
[Rope1_Seg05]
1 139.999832 0.000119 -0.000060 -8.061197 2.849419 0.515010 139.999832
2 139.999832 0.000119 -0.000060 -16.933947 8.320841 1.052037 139.999832
[Rope1_Seg06]
1 139.999954 0.000119 -0.000060 0.836258 0.228784 -0.624796 139.999954
2 139.999954 0.000119 -0.000060 -8.542435 3.917605 0.294528 139.999954
[Rope1_Seg07]
1 139.999985 0.000060 0.000000 -1.447194 0.506974 0.064501 139.999985
2 139.999985 0.000060 0.000000 -5.126697 1.679034 0.862269 139.999985
[Rope1_Seg09]
1 121.602913 0.000119 -0.000089 -89.790619 -1.359656 0.847385 121.602913
2 121.602913 0.000119 -0.000089 -89.365501 -1.359312 0.845851 121.602913
[L_mid_hand01]
1 103.859421 1.038730 8.195221 106.830864 -31.109169 -9.415485 104.187431
2 103.859421 1.038730 8.195221 106.590981 -29.754934 -8.944053 104.187431
[L_mid_hand02]
1 105.572853 -4.139662 -10.864139 -142.280319 25.666382 -28.651869 106.211075
2 105.572853 -4.139662 -10.864139 -141.752472 24.800730 -27.423903 106.211075
[L_mid_hand03]
1 104.641464 17.579376 -3.913581 -16.143641 9.695980 34.090794 106.179977
2 104.641464 17.579376 -3.913581 -16.370899 9.301978 32.715267 106.179977
[null_rope02_connect]
1 328.732849 0.000179 -0.000119 -140.208786 68.099197 -35.150627 328.732849
2 328.732849 0.000179 -0.000119 -123.618294 55.546787 -11.976539 328.732849
[Rope2_Seg01]
1 0.000095 0.000153 0.000000 56.439545 5.935364 -51.158833 0.000180
2 0.000095 0.000153 0.000002 34.885113 -10.091295 -48.077492 0.000180
[Rope2_Seg02]
1 139.999741 -0.000060 -0.000119 28.418823 -11.686383 -8.311026 139.999756
2 139.999741 -0.000060 -0.000119 21.539968 7.527165 -12.050224 139.999756
[Rope2_Seg03]
1 140.000107 0.000030 0.000000 8.898881 -7.552643 -2.401506 140.000107
2 140.000107 0.000030 0.000000 22.012304 6.125885 -7.638704 140.000107
[Rope2_Seg04]
1 139.999802 0.000000 -0.000060 2.137629 -11.150776 2.765398 139.999802
2 139.999802 0.000000 -0.000060 19.531300 -7.653666 -3.193501 139.999802
[Rope2_Seg05]
1 139.999985 -0.000060 0.000119 -0.226329 -7.988947 3.547940 139.999985
2 139.999985 -0.000060 0.000119 0.921042 -12.566131 4.807844 139.999985
[Rope2_Seg06]
1 139.999893 -0.000030 -0.000119 0.090380 -3.714563 1.384286 139.999893
2 139.999893 -0.000030 -0.000119 0.959597 -6.583186 2.037206 139.999893
[Rope2_Seg07]
1 139.999893 0.000060 -0.000060 0.038492 -2.338170 0.861611 139.999893
2 139.999893 0.000060 -0.000060 0.552084 -4.100371 1.214207 139.999893
[Rope2_Seg09]
1 121.338966 0.000089 -0.000060 33.793236 -1.359788 -0.847141 121.338966
2 121.338966 0.000089 -0.000060 33.793236 -1.359788 -0.847141 121.338966
[R_mid_hand01]
1 104.680779 11.144459 -10.335981 -41.326168 25.790571 29.054953 105.778534
2 104.680779 11.144459 -10.335981 -41.954803 24.607397 27.581720 105.778534
[R_mid_hand02]
1 104.070427 2.443552 8.231699 72.744827 -33.271915 10.207475 104.424065
2 104.070427 2.443552 8.231699 73.070992 -31.567533 9.589904 104.424065
[R_mid_hand03]
1 106.028137 -11.221827 -5.996406 -167.997543 10.373524 -37.556538 106.788818
2 106.028137 -11.221827 -5.996406 -167.685638 9.998048 -35.785023 106.788818
[spine02]
1 129.756927 0.001550 0.000119 0.360061 -4.044797 -12.915058 129.756927
2 129.756927 0.001550 0.000119 0.383286 -4.042439 -13.294443 129.756927
[spine03]
1 78.614044 0.081635 -4.899020 1.896495 3.831288 16.473045 78.766579
2 78.614044 0.081630 -4.899020 1.942474 3.811637 17.139597 78.766579
[pelvis]
1 169.435242 0.051022 0.000000 -0.060465 -0.180225 14.087930 169.435257
2 169.435242 0.051022 0.000000 -0.060794 -0.180114 14.297255 169.435257
[null_rope03_connect]
1 -1.257226 -2.466202 137.391083 156.329987 -89.381348 -94.430771 137.418976
2 -1.257226 -2.466202 137.391083 97.158913 -81.140396 -35.057987 137.418976
[null_rope04_connect]
1 -1.259640 -2.480268 -137.844437 156.329987 -89.381348 -94.430771 137.872513
2 -1.259640 -2.480268 -137.844437 97.158913 -81.140396 -35.057987 137.872513
[Rope3_Seg01]
1 0.000000 0.000000 0.000000 -137.226547 33.486111 -85.493698 0.000000
2 0.000000 0.000000 0.000000 -133.476852 36.578358 -77.333687 0.000000
[Rope3_Seg02]
1 139.999924 -0.000119 0.000060 0.529385 0.243611 -3.108474 139.999924
2 139.999924 -0.000119 0.000060 0.338196 0.165011 -3.376264 139.999924
[Rope3_Seg03]
1 139.999924 -0.000119 0.000119 0.483932 0.244307 -3.558812 139.999924
2 139.999924 -0.000119 0.000119 0.257740 0.174160 -4.083965 139.999924
[Rope3_Seg04]
1 139.999924 0.000119 0.000000 0.391920 -2.504836 -7.858822 139.999924
2 139.999924 0.000119 0.000000 0.116368 -2.280842 -7.991052 139.999924
[Rope3_Seg05]
1 139.999924 -0.000238 0.000060 0.148476 1.499945 -3.147470 139.999924
2 139.999924 -0.000238 0.000060 -0.367183 0.725746 -5.844203 139.999924
[Rope3_Seg06]
1 139.999893 -0.000119 -0.000060 1.728549 10.434495 9.557340 139.999893
2 139.999893 -0.000119 -0.000060 0.827106 11.112362 7.247358 139.999893
[Rope3_Seg07]
1 139.999771 0.000060 -0.000119 1.960076 7.922770 6.899439 139.999771
2 139.999771 0.000060 -0.000119 1.532464 8.852625 5.783011 139.999771
[Rope3_Seg08]
1 139.999985 -0.000060 0.000000 1.610571 4.484357 3.277674 139.999985
2 139.999985 -0.000060 0.000000 1.397677 5.067778 2.563919 139.999985
[Rope3_Seg09]
1 90.185997 -0.000179 -0.000060 89.795311 -1.358474 -0.848592 90.185997
2 90.185997 -0.000179 -0.000060 88.069687 -1.360898 -0.845703 90.185997
[R_rear_hand01]
1 103.366196 -6.073594 -10.757982 -161.514954 16.622681 -29.959044 104.101845
2 103.366196 -6.073594 -10.757982 -161.070709 16.114294 -28.383715 104.101845
[R_rear_hand02]
1 100.509819 12.039542 -7.992327 -34.319695 19.215910 28.760387 101.543350
2 100.509819 12.039542 -7.992327 -34.767273 18.310900 27.372818 101.543350
[R_rear_hand03]
1 101.539970 5.215704 5.435467 83.373177 -30.802664 7.266830 101.819031
2 101.539970 5.215704 5.435467 83.483650 -29.219656 7.057811 101.819031
[Rope4_Seg01]
1 -0.000019 -0.000076 -0.000153 38.042118 17.330414 -129.149307 0.000172
2 -0.000019 -0.000074 -0.000153 42.823662 13.518080 -118.827576 0.000171
[Rope4_Seg02]
1 139.999985 0.000060 0.000119 0.326906 9.537599 4.491703 139.999985
2 139.999985 0.000060 0.000119 -0.022478 8.716650 2.286670 139.999985
[Rope4_Seg03]
1 139.999924 0.000000 -0.000238 0.661491 12.203299 5.794800 139.999924
2 139.999924 0.000000 -0.000238 0.553280 11.996373 3.213057 139.999924
[Rope4_Seg04]
1 139.999985 0.000000 0.000119 2.897748 24.602402 14.954942 139.999985
2 139.999985 0.000000 0.000119 4.078548 25.903103 10.105151 139.999985
[Rope4_Seg05]
1 139.999802 -0.000060 -0.000119 0.926558 11.801614 5.812854 139.999802
2 139.999802 -0.000060 -0.000119 5.553870 18.056923 5.212477 139.999802
[Rope4_Seg06]
1 139.999924 0.000000 0.000060 5.873922 -18.449169 -15.875332 139.999924
2 139.999924 0.000000 0.000060 2.913414 -22.925182 -12.731889 139.999924
[Rope4_Seg07]
1 139.999802 0.000000 0.000000 4.722786 -24.755676 -18.371317 139.999802
2 139.999802 0.000000 0.000000 3.842582 -29.537434 -15.016798 139.999802
[Rope4_Seg08]
1 139.999924 0.000000 0.000119 -1.432615 -6.861454 -4.943341 139.999924
2 139.999924 0.000000 0.000119 -1.201092 -7.617522 -3.983887 139.999924
[Rope4_Seg09]
1 90.185791 0.000060 0.000060 -135.615479 2.230401 0.852983 90.185791
2 90.185791 0.000060 0.000060 -136.772385 2.229789 0.853411 90.185791
[L_rear_hand01]
1 101.696655 -8.392275 -7.654577 -34.494175 -18.868284 151.776016 102.329041
2 101.696655 -8.392275 -7.654577 -34.974575 -17.870222 153.297684 102.329041
[L_rear_hand02]
1 102.726799 -1.568258 5.773216 83.420067 30.192865 172.817169 102.900848
2 102.726799 -1.568258 5.773216 83.532455 28.446354 173.043457 102.900848
[L_rear_hand03]
1 104.552910 9.721220 -10.420293 -161.342361 -16.429968 -150.651169 105.519653
2 104.552910 9.721220 -10.420293 -160.858841 -15.862107 -152.380615 105.519653
